Coordinates
version=1
nRows=12
nColumns=46
inDegrees=yes

Units are S.I. units (second, meters, Newtons, ...)
Angles are in degrees.

endheader
time	pelvis_tilt	pelvis_list	pelvis_rotation	pelvis_tx	pelvis_ty	pelvis_tz	bb_angle	bb_tx	bb_ty	bb_tz	hip_flexion_r	hip_adduction_r	hip_rotation_r	knee_angle_r	knee_angle_r_beta	ankle_angle_r	subtalar_angle_r	mtp_angle_r	crank_angle_r	hip_flexion_l	hip_adduction_l	hip_rotation_l	knee_angle_l	knee_angle_l_beta	ankle_angle_l	subtalar_angle_l	mtp_angle_l	crank_angle_l	lumbar_extension	lumbar_bending	lumbar_rotation	arm_flex_r	arm_add_r	arm_rot_r	elbow_flex_r	pro_sup_r	wrist_flex_r	wrist_dev_r	arm_flex_l	arm_add_l	arm_rot_l	elbow_flex_l	pro_sup_l	wrist_flex_l	wrist_dev_l
      7.50500000	    -30.91400074	     10.35882024	     -0.69312485	      0.35249587	      1.13359689	     -0.26056970	      0.00000000	      0.50000000	      0.00000000	      0.25000000	     43.03029144	    -10.99310149	      3.56354997	     27.86527073	      0.48634072	    -11.00117006	     -8.90598093	      0.00000000	      0.00000000	     73.14081209	      2.75248125	     -1.31740054	    103.67831486	      1.80952796	    -19.27813556	     -9.63079074	      0.00000000	      0.00000000	    -55.02303976	     -7.14314389	     12.51726572	     -1.91419890	    -50.07782314	    -15.24386915	    119.05447895	     51.53487410	      0.00000000	      0.00000000	     48.80735530	    -18.33629403	     32.25795689	     87.05728529	     51.34356189	      0.00000000	      0.00000000
      7.51000000	    -30.79671068	     10.65229870	      0.26413354	      0.35258778	      1.13234580	     -0.26044706	      0.00000000	      0.50000000	      0.00000000	      0.25000000	     41.39041245	    -11.95098721	      2.54563902	     26.27544356	      0.45859300	    -11.80248050	     -8.65674693	      0.00000000	      0.00000000	     74.54396950	      3.36687809	     -1.36299673	    105.14789652	      1.83517700	    -18.72116770	     -9.24641324	      0.00000000	      0.00000000	    -55.00994579	     -7.03410921	     11.64386462	     -1.97772930	    -49.27332122	    -15.45923909	    118.66797268	     51.45628530	      0.00000000	      0.00000000	     49.24073517	    -18.73852848	     32.93110899	     86.96876416	     51.39358092	      0.00000000	      0.00000000
      7.51500000	    -30.86072189	     11.02816698	      1.10027877	      0.35250266	      1.13087947	     -0.26035976	      0.00000000	      0.50000000	      0.00000000	      0.25000000	     40.03353337	    -12.87068985	      1.77463704	     24.84237172	      0.43358118	    -12.42218781	     -8.15558083	      0.00000000	      0.00000000	     76.11072144	      3.92615578	     -1.52192909	    106.51081100	      1.85896434	    -18.14789868	     -8.99123949	      0.00000000	      0.00000000	    -54.82980350	     -7.12610151	     10.79055929	     -2.04103219	    -48.70927970	    -15.62883711	    118.40463884	     51.40007595	      0.00000000	      0.00000000	     49.62251811	    -19.05749010	     33.39487136	     86.99724588	     51.43965175	      0.00000000	      0.00000000
      7.52000000	    -30.80973622	     11.33142260	      2.16647014	      0.35248887	      1.12980372	     -0.26086608	      0.00000000	      0.50000000	      0.00000000	      0.25000000	     38.57690959	    -13.96245838	      0.40622490	     23.65574562	      0.41287065	    -12.82450550	     -7.16570415	      0.00000000	      0.00000000	     77.56129298	      4.73173539	     -1.57883607	    107.71603375	      1.87999945	    -17.54407405	     -8.47835204	      0.00000000	      0.00000000	    -54.82808831	     -6.92565744	      9.76308816	     -1.71950549	    -47.80120908	    -15.95440095	    117.96204669	     51.30948521	      0.00000000	      0.00000000	     50.19461350	    -19.91183391	     34.52056705	     87.27938283	     51.60828645	      0.00000000	      0.00000000
      7.52500000	    -31.00464375	     11.60341355	      2.91495450	      0.35241951	      1.12855592	     -0.26054288	      0.00000000	      0.50000000	      0.00000000	      0.25000000	     37.48956260	    -14.68897466	     -0.39575671	     22.57820902	      0.39406409	    -13.43678593	     -6.62051199	      0.00000000	      0.00000000	     79.20679715	      5.07890180	     -1.77560676	    108.78251686	      1.89861309	    -17.15847108	     -8.31038782	      0.00000000	      0.00000000	    -54.60040233	     -7.07600006	      8.98494983	     -1.94461791	    -47.29293295	    -15.91172299	    117.74963807	     51.28794929	      0.00000000	      0.00000000	     50.41579211	    -20.11013969	     34.66652102	     87.39365615	     51.63744194	      0.00000000	      0.00000000
      7.53000000	    -30.90158855	     11.76930134	      3.84049953	      0.35247287	      1.12809624	     -0.26031941	      0.00000000	      0.50000000	      0.00000000	      0.25000000	     36.09097698	    -15.47861289	     -1.78952750	     21.71671284	      0.37902814	    -13.86146269	     -5.84695141	      0.00000000	      0.00000000	     80.49359508	      5.61853004	     -1.79697857	    109.64103825	      1.91359711	    -16.80131957	     -7.82154693	      0.00000000	      0.00000000	    -54.77004571	     -6.91742833	      8.09940120	     -1.61006048	    -46.08811466	    -16.07418624	    117.45051256	     51.23220753	      0.00000000	      0.00000000	     50.73844017	    -20.68547873	     35.17640959	     87.81124221	     51.75902811	      0.00000000	      0.00000000
      7.53500000	    -31.04695454	     11.94706587	      4.45927932	      0.35224914	      1.12742246	     -0.25993546	      0.00000000	      0.50000000	      0.00000000	      0.25000000	     35.14769694	    -16.01949888	     -2.48362722	     21.01497540	      0.36678051	    -14.46558459	     -5.21804268	      0.00000000	      0.00000000	     82.00280903	      5.83392389	     -1.96380731	    110.36682446	      1.92626447	    -16.53094848	     -7.58837612	      0.00000000	      0.00000000	    -54.71821542	     -7.01951338	      7.47053046	     -1.65626741	    -45.63499352	    -16.01299544	    117.29098776	     51.21824628	      0.00000000	      0.00000000	     51.02569261	    -20.90444547	     35.29833957	     88.09454843	     51.81223185	      0.00000000	      0.00000000
      7.54000000	    -31.04457853	     12.01704759	      5.21687220	      0.35237905	      1.12730324	     -0.25972210	      0.00000000	      0.50000000	      0.00000000	      0.25000000	     34.03715374	    -16.56360541	     -3.61246840	     20.48965083	      0.35761187	    -14.98703657	     -4.49509439	      0.00000000	      0.00000000	     83.26729107	      6.18752417	     -2.00382055	    110.89086501	      1.93541070	    -16.35839854	     -7.21050065	      0.00000000	      0.00000000	    -54.86504584	     -6.90087245	      6.69235975	     -1.51221345	    -44.78429330	    -15.94440148	    117.05549239	     51.19927858	      0.00000000	      0.00000000	     51.17067765	    -21.40210992	     35.63992627	     88.66926843	     51.94573267	      0.00000000	      0.00000000
      7.54500000	    -31.14368433	     12.11022056	      5.79165459	      0.35228882	      1.12726802	     -0.25945092	      0.00000000	      0.50000000	      0.00000000	      0.25000000	     33.19961674	    -16.98818953	     -4.22283106	     20.15374823	      0.35174926	    -15.46068912	     -4.00896878	      0.00000000	      0.00000000	     84.56232786	      6.34935859	     -2.17867379	    111.27020083	      1.94203136	    -16.12149194	     -7.05585753	      0.00000000	      0.00000000	    -54.95903395	     -6.91539471	      6.14345185	     -1.47068138	    -44.40634089	    -15.83887006	    116.97326795	     51.20303688	      0.00000000	      0.00000000	     51.54287911	    -21.56487742	     35.66636072	     89.05356676	     52.00833772	      0.00000000	      0.00000000
      7.55000000	    -30.87212602	     12.28154420	      6.47839973	      0.35271927	      1.12830741	     -0.25918151	      0.00000000	      0.50000000	      0.00000000	      0.25000000	     31.95317856	    -17.57437901	     -5.18497281	     19.99000757	      0.34889145	    -15.65591852	     -3.21982456	      0.00000000	      0.00000000	     85.29086043	      6.74559368	     -2.33385442	    111.38873964	      1.94410026	    -15.87271332	     -6.62879179	      0.00000000	      0.00000000	    -55.51640308	     -6.69719552	      3.56870550	      2.63339527	    -43.74925797	    -11.61691800	    115.44821232	     51.44165529	      0.00000000	      0.00000000	     50.47015123	    -24.35033280	     34.88376178	     91.83627069	     52.39891048	      0.00000000	      0.00000000
      7.55500000	    -30.85740461	     12.28952382	      6.73735530	      0.35279483	      1.12891146	     -0.25866045	      0.00000000	      0.50000000	      0.00000000	      0.25000000	     31.30135712	    -17.68969027	     -5.26229274	     20.12158476	      0.35118790	    -15.88979504	     -3.14650243	      0.00000000	      0.00000000	     86.22528736	      6.56015003	     -2.52092032	    111.44860541	      1.94514511	    -15.81350849	     -6.59022756	      0.00000000	      0.00000000	    -55.76788183	     -6.75006903	      3.35662959	      2.59494445	    -43.66111202	    -11.59200690	    115.41997579	     51.44132654	      0.00000000	      0.00000000	     50.57090034	    -24.29478559	     34.86175962	     91.88591867	     52.40279754	      0.00000000	      0.00000000
      7.56000000	    -30.82463977	     12.52903976	      7.46778644	      0.35319023	      1.13035193	     -0.25889588	      0.00000000	      0.50000000	      0.00000000	      0.25000000	     30.56908577	    -18.36024048	     -6.03505081	     20.38557340	      0.35579538	    -16.42696602	     -2.84882478	      0.00000000	      0.00000000	     86.90687141	      7.12789858	     -2.79346902	    111.14033980	      1.93976486	    -15.55186912	     -6.45754182	      0.00000000	      0.00000000	    -56.28504736	     -6.57352297	      1.47529103	      4.73513573	    -42.65383571	     -9.49158996	    114.60000153	     51.56933816	      0.00000000	      0.00000000	     49.93102168	    -25.74357511	     33.77035778	     93.91493001	     52.57687757	      0.00000000	      0.00000000
